<svg width="683" height="683" viewBox="0 0 683 683" fill="none" xmlns="http://www.w3.org/2000/svg">
<g clip-path="url(#clip0_866_207)">
<path d="M681.333 183.6C676.533 164.667 659.6 149.6 640.533 147.2C632.533 146.267 620.4 148.4 612.667 152.267C609.2 154 560.933 201.333 474.4 287.733L341.333 420.667L208.4 287.733C121.733 201.333 73.4667 154 70 152.267C45.2 140 16 150.267 4.40002 175.333C1.33335 182.133 0.666683 185.067 0.800016 194.667C0.800016 216 -12 201.6 159.733 373.6C263.333 477.333 314.4 527.6 318.533 529.867C328.267 535.067 339.6 536.933 349.733 534.8C354.267 533.867 360.8 531.6 364.133 529.867C368.267 527.6 419.333 477.333 522.933 373.6C658.933 237.333 675.867 219.867 678.533 213.6C681.867 205.467 683.2 191.2 681.333 183.6Z" fill="black"/>
</g>
<defs>
<clipPath id="clip0_866_207">
<rect width="682.667" height="682.667" fill="white" />
</clipPath>
</defs>
</svg>
